<svg xmlns="http://www.w3.org/2000/svg" width="60" height="48" viewBox="0 0 30 24"><g><g><path fill="#fff" d="M26.691 3.629a2.656 2.656 0 0 1 2.656 2.656v15.14a2.656 2.656 0 0 1-2.656 2.657H3.316A2.656 2.656 0 0 1 .66 21.426V6.285a2.656 2.656 0 0 1 2.656-2.656h4.516L8.91.614a1.06 1.06 0 0 1 1-.704h10.186A1.064 1.064 0 0 1 21.1.614l1.076 3.015zm-6.375 9.828a5.311 5.311 0 0 0-5.312-5.313 5.311 5.311 0 0 0-5.313 5.313 5.311 5.311 0 0 0 5.313 5.312 5.311 5.311 0 0 0 5.312-5.312zm-7.566-2.254a3.188 3.188 0 1 1 4.508 4.508 3.188 3.188 0 0 1-4.508-4.508z"/></g></g></svg>